<svg width="24" height="24" viewBox="0 0 24 24" fill="none" xmlns="http://www.w3.org/2000/svg">
<path d="M12 5.442C14.136 5.442 14.3893 5.45 15.2333 5.48867C17.4013 5.58733 18.414 6.616 18.5127 8.768C18.5513 9.61133 18.5587 9.86467 18.5587 12.0007C18.5587 14.1373 18.5507 14.39 18.5127 15.2333C18.4133 17.3833 17.4033 18.414 15.2333 18.5127C14.3893 18.5513 14.1373 18.5593 12 18.5593C9.864 18.5593 9.61067 18.5513 8.76733 18.5127C6.594 18.4133 5.58667 17.38 5.488 15.2327C5.44933 14.3893 5.44133 14.1367 5.44133 12C5.44133 9.864 5.45 9.61133 5.488 8.76733C5.58733 6.616 6.59733 5.58667 8.76733 5.488C9.61133 5.45 9.864 5.442 12 5.442ZM12 4C9.82733 4 9.55533 4.00933 8.702 4.048C5.79667 4.18133 4.182 5.79333 4.04867 8.70133C4.00933 9.55533 4 9.82733 4 12C4 14.1727 4.00933 14.4453 4.048 15.2987C4.18133 18.204 5.79333 19.8187 8.70133 19.952C9.55533 19.9907 9.82733 20 12 20C14.1727 20 14.4453 19.9907 15.2987 19.952C18.2013 19.8187 19.82 18.2067 19.9513 15.2987C19.9907 14.4453 20 14.1727 20 12C20 9.82733 19.9907 9.55533 19.952 8.702C19.8213 5.79933 18.2073 4.182 15.2993 4.04867C14.4453 4.00933 14.1727 4 12 4ZM12 7.892C9.73133 7.892 7.892 9.73133 7.892 12C7.892 14.2687 9.73133 16.1087 12 16.1087C14.2687 16.1087 16.108 14.2693 16.108 12C16.108 9.73133 14.2687 7.892 12 7.892ZM12 14.6667C10.5273 14.6667 9.33333 13.4733 9.33333 12C9.33333 10.5273 10.5273 9.33333 12 9.33333C13.4727 9.33333 14.6667 10.5273 14.6667 12C14.6667 13.4733 13.4727 14.6667 12 14.6667ZM16.2707 6.77C15.74 6.77 15.31 7.2 15.31 7.73C15.31 8.26 15.74 8.69 16.2707 8.69C16.8007 8.69 17.23 8.26 17.23 7.73C17.23 7.2 16.8007 6.77 16.2707 6.77Z" fill="white" fill-opacity="0.5"/>
</svg>
