<svg width="32" height="32" viewBox="0 0 32 32" fill="none" xmlns="http://www.w3.org/2000/svg">
<path d="M16.015 2.6665C8.65904 2.6665 2.6857 8.63984 2.6857 15.9972C2.6857 23.3545 8.65903 29.3265 16.015 29.3265C23.3724 29.3265 29.3457 23.3545 29.3457 15.9972C29.3457 8.63984 23.3724 2.6665 16.015 2.6665ZM18.047 10.9478C18.047 10.9478 20.0484 12.9545 22.3857 15.2932C22.5817 15.4878 22.679 15.7438 22.679 15.9998C22.679 16.2558 22.5817 16.5118 22.3857 16.7065C20.0497 19.0452 18.047 21.0505 18.047 21.0505C17.8537 21.2438 17.6004 21.3398 17.3457 21.3398C17.0897 21.3398 16.8337 21.2412 16.639 21.0452C16.2484 20.6558 16.2457 20.0238 16.6337 19.6358L19.2697 16.9998L10.3457 16.9998C9.7937 16.9998 9.3457 16.5518 9.3457 15.9998C9.3457 15.4478 9.7937 14.9998 10.3457 14.9998L19.2697 14.9998L16.6324 12.3612C16.247 11.9758 16.2497 11.3465 16.6404 10.9558C16.8364 10.7598 17.0924 10.6612 17.347 10.6598C17.6017 10.6598 17.8537 10.7545 18.047 10.9478Z" fill="white"/>
</svg>
