<svg xmlns="http://www.w3.org/2000/svg" xmlns:xlink="http://www.w3.org/1999/xlink" width="1211" zoomAndPan="magnify" viewBox="0 0 908.25 225" height="300" preserveAspectRatio="xMidYMid meet" version="1.2"><defs/><g id="d8be4787ab"><g style="fill:#ffffff;fill-opacity:1;"><g transform="translate(23.710891, 213.846788)"><path style="stroke:none" d="M 152.640625 4.359375 C 102.742188 4.359375 66.023438 -5.910156 42.484375 -26.453125 C 21.660156 -44.640625 11.25 -69.398438 11.25 -100.734375 C 11.25 -132.148438 21.660156 -156.957031 42.484375 -175.15625 C 66.023438 -195.695312 102.742188 -205.96875 152.640625 -205.96875 C 181.054688 -205.96875 204.691406 -202.773438 223.546875 -196.390625 C 242.398438 -190.015625 257.195312 -181.316406 267.9375 -170.296875 C 278.675781 -159.273438 286.015625 -146.59375 289.953125 -132.25 L 199.359375 -132.25 C 189.878906 -145.28125 174.304688 -151.796875 152.640625 -151.796875 C 132.191406 -151.796875 117.140625 -145.9375 107.484375 -134.21875 C 99.796875 -124.738281 95.953125 -113.578125 95.953125 -100.734375 C 95.953125 -87.878906 99.796875 -76.765625 107.484375 -67.390625 C 117.140625 -55.660156 132.191406 -49.796875 152.640625 -49.796875 C 169.148438 -49.796875 181.554688 -51.226562 189.859375 -54.09375 C 198.160156 -56.957031 204.234375 -60.6875 208.078125 -65.28125 L 175.015625 -65.28125 L 175.015625 -100.734375 L 289.953125 -100.734375 L 289.953125 0.140625 L 254.78125 0.140625 L 247.609375 -19.421875 C 225.191406 -3.566406 193.535156 4.359375 152.640625 4.359375 Z M 152.640625 4.359375 "/></g></g><g style="fill:#ffffff;fill-opacity:1;"><g transform="translate(400.26955, 213.846788)"><path style="stroke:none" d="M 290.9375 0 L 205.125 0 L 146.59375 -61.90625 L 87.921875 0 L 2.109375 0 L 107.203125 -103.265625 L 2.109375 -201.75 L 87.921875 -201.75 L 146.59375 -143.921875 L 205.125 -201.75 L 290.9375 -201.75 L 185.84375 -103.265625 Z M 290.9375 0 "/></g></g><g style="fill:#ffffff;fill-opacity:1;"><g transform="translate(763.041131, 213.846788)"><path style="stroke:none" d="M 107.203125 0 L 22.515625 0 L 22.515625 -201.890625 L 107.203125 -201.890625 Z M 107.203125 0 "/></g></g></g></svg>