<svg xmlns="http://www.w3.org/2000/svg" xmlns:xlink="http://www.w3.org/1999/xlink" width="1211" zoomAndPan="magnify" viewBox="0 0 908.25 225" height="300" preserveAspectRatio="xMidYMid meet" version="1.2"><defs/><g id="1c36cc551d"><g style="fill:#000000;fill-opacity:1;"><g transform="translate(23.729808, 213.460742)"><path style="stroke:none" d="M 152.640625 4.359375 C 102.742188 4.359375 66.023438 -5.910156 42.484375 -26.453125 C 21.660156 -44.640625 11.25 -69.394531 11.25 -100.71875 C 11.25 -132.144531 21.660156 -156.953125 42.484375 -175.140625 C 66.023438 -195.679688 102.742188 -205.953125 152.640625 -205.953125 C 181.054688 -205.953125 204.6875 -202.765625 223.53125 -196.390625 C 242.382812 -190.015625 257.179688 -181.316406 267.921875 -170.296875 C 278.660156 -159.273438 286 -146.585938 289.9375 -132.234375 L 199.34375 -132.234375 C 189.863281 -145.273438 174.296875 -151.796875 152.640625 -151.796875 C 132.191406 -151.796875 117.140625 -145.929688 107.484375 -134.203125 C 99.785156 -124.734375 95.9375 -113.570312 95.9375 -100.71875 C 95.9375 -87.875 99.785156 -76.765625 107.484375 -67.390625 C 117.140625 -55.660156 132.191406 -49.796875 152.640625 -49.796875 C 169.140625 -49.796875 181.539062 -51.222656 189.84375 -54.078125 C 198.144531 -56.941406 204.21875 -60.675781 208.0625 -65.28125 L 175 -65.28125 L 175 -100.71875 L 289.9375 -100.71875 L 289.9375 0.140625 L 254.765625 0.140625 L 247.59375 -19.40625 C 225.175781 -3.5625 193.523438 4.359375 152.640625 4.359375 Z M 152.640625 4.359375 "/></g></g><g style="fill:#000000;fill-opacity:1;"><g transform="translate(400.282545, 213.460742)"><path style="stroke:none" d="M 290.921875 0 L 205.109375 0 L 146.59375 -61.90625 L 87.921875 0 L 2.109375 0 L 107.203125 -103.265625 L 2.109375 -201.734375 L 87.921875 -201.734375 L 146.59375 -143.90625 L 205.109375 -201.734375 L 290.921875 -201.734375 L 185.84375 -103.265625 Z M 290.921875 0 "/></g></g><g style="fill:#000000;fill-opacity:1;"><g transform="translate(763.048456, 213.460742)"><path style="stroke:none" d="M 107.203125 0 L 22.515625 0 L 22.515625 -201.875 L 107.203125 -201.875 Z M 107.203125 0 "/></g></g></g></svg>